<svg width="23" height="21" viewBox="0 0 23 21" fill="none" xmlns="http://www.w3.org/2000/svg">
<path d="M21.1775 9.16789H5.58544C5.58272 9.16789 5.58 9.16184 5.58272 9.16184L11.4641 2.86496C11.9397 2.35637 11.956 1.51174 11.4967 0.981957C11.0401 0.452172 10.2818 0.434008 9.8062 0.945629L1.79952 9.51604C1.56579 9.76731 1.43262 10.1155 1.43262 10.4757C1.43262 10.839 1.56579 11.1841 1.79952 11.4354L9.84969 20.0542C10.0807 20.3025 10.3797 20.4266 10.6786 20.4266C10.9939 20.4266 11.3064 20.2904 11.5402 20.0179C11.9968 19.4881 11.9832 18.6435 11.5076 18.1349L5.62621 11.838C5.62349 11.835 5.62621 11.832 5.62892 11.832H21.2047C21.8407 11.832 22.3598 11.278 22.3978 10.5817C22.4386 9.80969 21.8706 9.16789 21.1775 9.16789Z" fill="black" stroke="black"/>
</svg>
