<svg width="16" height="17" viewBox="0 0 16 17" fill="none" xmlns="http://www.w3.org/2000/svg">
<g clip-path="url(#clip0_17_3000)">
<path d="M7.99992 2.31445C4.31325 2.31445 1.33325 5.29445 1.33325 8.98112C1.33325 12.6678 4.31325 15.6478 7.99992 15.6478C11.6866 15.6478 14.6666 12.6678 14.6666 8.98112C14.6666 5.29445 11.6866 2.31445 7.99992 2.31445ZM10.8666 11.8478C10.6066 12.1078 10.1866 12.1078 9.92659 11.8478L7.99992 9.92112L6.07325 11.8478C5.81325 12.1078 5.39325 12.1078 5.13325 11.8478C4.87325 11.5878 4.87325 11.1678 5.13325 10.9078L7.05992 8.98112L5.13325 7.05445C4.87325 6.79445 4.87325 6.37445 5.13325 6.11445C5.39325 5.85445 5.81325 5.85445 6.07325 6.11445L7.99992 8.04112L9.92659 6.11445C10.1866 5.85445 10.6066 5.85445 10.8666 6.11445C11.1266 6.37445 11.1266 6.79445 10.8666 7.05445L8.93992 8.98112L10.8666 10.9078C11.1199 11.1611 11.1199 11.5878 10.8666 11.8478Z" fill="#757575"/>
</g>
<defs>
<clipPath id="clip0_17_3000">
<rect width="16" height="16" fill="white" transform="translate(0 0.981079)"/>
</clipPath>
</defs>
</svg>
