<svg width="48" height="48" viewBox="0 0 48 48" fill="none" xmlns="http://www.w3.org/2000/svg">
<g clip-path="url(#clip0_1_6141)">
<path d="M48 24C48 10.7452 37.2548 0 24 0C10.7452 0 0 10.7452 0 24C0 35.9791 8.77645 45.908 20.25 47.7084V30.9375H14.1562V24H20.25V18.7125C20.25 12.6975 23.833 9.375 29.3152 9.375C31.941 9.375 34.6875 9.84375 34.6875 9.84375V15.75H31.6612C28.6798 15.75 27.75 17.6 27.75 19.498V24H34.4062L33.3422 30.9375H27.75V47.7084C39.2235 45.908 48 35.9791 48 24Z" fill="#1877F2"/>
<path d="M33.3421 30.9375L34.4062 24H27.75V19.498C27.75 17.6 28.6797 15.75 31.6611 15.75H34.6875V9.84375C34.6875 9.84375 31.9409 9.375 29.3151 9.375C23.833 9.375 20.25 12.6975 20.25 18.7125V24H14.1562V30.9375H20.25V47.7084C21.4719 47.9002 22.7242 48 24 48C25.2757 48 26.5281 47.9002 27.75 47.7084V30.9375H33.3421Z" fill="white"/>
</g>
<defs>
<clipPath id="clip0_1_6141">
<rect width="48" height="48" fill="white"/>
</clipPath>
</defs>
</svg>
