<svg width="318" height="60" viewBox="0 0 318 60" fill="none" xmlns="http://www.w3.org/2000/svg">
<rect x="2.5" y="0.5" width="101" height="57" rx="7.5" fill="white" stroke="#EEEEEE"/>
<g clip-path="url(#clip0_13_18432)">
<path d="M69 29C69 20.1634 61.8366 13 53 13C44.1634 13 37 20.1634 37 29C37 36.9861 42.851 43.6053 50.5 44.8056V33.625H46.4375V29H50.5V25.475C50.5 21.465 52.8887 19.25 56.5434 19.25C58.294 19.25 60.125 19.5625 60.125 19.5625V23.5H58.1074C56.1198 23.5 55.5 24.7333 55.5 25.9987V29H59.9375L59.2281 33.625H55.5V44.8056C63.149 43.6053 69 36.9861 69 29Z" fill="#1877F2"/>
<path d="M59.2281 33.625L59.9375 29H55.5V25.9987C55.5 24.7333 56.1198 23.5 58.1074 23.5H60.125V19.5625C60.125 19.5625 58.294 19.25 56.5434 19.25C52.8887 19.25 50.5 21.465 50.5 25.475V29H46.4375V33.625H50.5V44.8056C51.3146 44.9334 52.1495 45 53 45C53.8505 45 54.6854 44.9334 55.5 44.8056V33.625H59.2281Z" fill="white"/>
</g>
<rect x="108.5" y="1.5" width="101" height="57" rx="7.5" fill="white" stroke="#EEEEEE"/>
<path d="M150.092 33.3392L148.978 37.4976L144.907 37.5837C143.69 35.327 143 32.7449 143 30.0011C143 27.3478 143.645 24.8457 144.789 22.6426H144.79L148.415 23.3071L150.002 26.91C149.67 27.8788 149.489 28.9189 149.489 30.0011C149.489 31.1756 149.702 32.301 150.092 33.3392Z" fill="#FBBB00"/>
<path d="M174.72 27.0117C174.904 27.9796 175 28.9792 175 30.0008C175 31.1464 174.879 32.2638 174.65 33.3416C173.871 37.0095 171.836 40.2122 169.016 42.4787L169.016 42.4778L164.45 42.2448L163.804 38.2113C165.675 37.1141 167.137 35.3971 167.907 33.3416H159.351V27.0117H168.032H174.72Z" fill="#518EF8"/>
<path d="M169.018 42.4773L169.019 42.4781C166.277 44.6822 162.794 46.0009 159.002 46.0009C152.909 46.0009 147.611 42.5951 144.908 37.583L150.094 33.3385C151.445 36.9448 154.924 39.5119 159.002 39.5119C160.755 39.5119 162.397 39.038 163.807 38.2107L169.018 42.4773Z" fill="#28B446"/>
<path d="M169.212 17.6836L164.029 21.9273C162.57 21.0156 160.846 20.489 158.999 20.489C154.829 20.489 151.285 23.1739 150.001 26.9095L144.789 22.6421H144.788C147.451 17.5078 152.815 14 158.999 14C162.882 14 166.441 15.3829 169.212 17.6836Z" fill="#F14336"/>
<rect x="216.5" y="2.5" width="101" height="57" rx="7.5" fill="white" stroke="#EEEEEE"/>
<g clip-path="url(#clip1_13_18432)">
<path d="M266.499 24.6293C265.331 24.6293 263.523 23.3013 261.619 23.3493C259.107 23.3813 256.803 24.8053 255.507 27.0613C252.899 31.5893 254.835 38.2773 257.379 41.9573C258.627 43.7493 260.099 45.7653 262.051 45.7013C263.923 45.6213 264.627 44.4853 266.899 44.4853C269.155 44.4853 269.795 45.7013 271.779 45.6533C273.795 45.6213 275.075 43.8293 276.307 42.0213C277.731 39.9413 278.323 37.9253 278.355 37.8133C278.307 37.7973 274.435 36.3093 274.387 31.8293C274.355 28.0853 277.443 26.2933 277.587 26.2133C275.827 23.6373 273.123 23.3493 272.179 23.2853C269.715 23.0933 267.651 24.6293 266.499 24.6293V24.6293ZM270.659 20.8533C271.699 19.6053 272.387 17.8613 272.195 16.1333C270.707 16.1973 268.915 17.1253 267.843 18.3733C266.883 19.4773 266.051 21.2533 266.275 22.9493C267.923 23.0773 269.619 22.1013 270.659 20.8533V20.8533Z" fill="black"/>
</g>
<defs>
<clipPath id="clip0_13_18432">
<rect width="32" height="32" fill="white" transform="translate(37 13)"/>
</clipPath>
<clipPath id="clip1_13_18432">
<rect width="32" height="32" fill="white" transform="translate(251 15)"/>
</clipPath>
</defs>
</svg>
