<svg width="25" height="25" viewBox="0 0 25 25" fill="none" xmlns="http://www.w3.org/2000/svg">
<g clip-path="url(#clip0_1_7372)">
<path d="M20.8334 17.7084H22.9167V19.7917H2.08337V17.7084H4.16671V10.4167C4.16671 8.20657 5.04468 6.08695 6.60748 4.52415C8.17029 2.96135 10.2899 2.08337 12.5 2.08337C14.7102 2.08337 16.8298 2.96135 18.3926 4.52415C19.9554 6.08695 20.8334 8.20657 20.8334 10.4167V17.7084ZM18.75 17.7084V10.4167C18.75 8.7591 18.0916 7.16939 16.9195 5.99729C15.7474 4.82519 14.1576 4.16671 12.5 4.16671C10.8424 4.16671 9.25273 4.82519 8.08062 5.99729C6.90852 7.16939 6.25004 8.7591 6.25004 10.4167V17.7084H18.75ZM9.37504 21.875H15.625V23.9584H9.37504V21.875Z" fill="black"/>
</g>
<defs>
<clipPath id="clip0_1_7372">
<rect width="25" height="25" fill="white"/>
</clipPath>
</defs>
</svg>
