<svg width="25" height="24" viewBox="0 0 25 24" fill="none" xmlns="http://www.w3.org/2000/svg">
<path fill-rule="evenodd" clip-rule="evenodd" d="M12.25 18C15.5637 18 18.25 15.3137 18.25 12C18.25 8.68629 15.5637 6 12.25 6C8.93629 6 6.25 8.68629 6.25 12C6.25 15.3137 8.93629 18 12.25 18Z" fill="#535763"/>
<path fill-rule="evenodd" clip-rule="evenodd" d="M12.2451 1.5C12.7974 1.5 13.2451 1.94772 13.2451 2.5V3.5C13.2451 4.05228 12.7974 4.5 12.2451 4.5C11.6928 4.5 11.2451 4.05228 11.2451 3.5V2.5C11.2451 1.94772 11.6928 1.5 12.2451 1.5Z" fill="#535763"/>
<path fill-rule="evenodd" clip-rule="evenodd" d="M12.2451 19.5C12.7974 19.5 13.2451 19.9477 13.2451 20.5V21.4968C13.2451 22.0491 12.7974 22.4968 12.2451 22.4968C11.6928 22.4968 11.2451 22.0491 11.2451 21.4968V20.5C11.2451 19.9477 11.6928 19.5 12.2451 19.5Z" fill="#535763"/>
<path fill-rule="evenodd" clip-rule="evenodd" d="M1.7467 11.9984C1.7467 11.4461 2.19442 10.9984 2.7467 10.9984H3.7467C4.29899 10.9984 4.7467 11.4461 4.7467 11.9984C4.7467 12.5507 4.29899 12.9984 3.7467 12.9984H2.7467C2.19442 12.9984 1.7467 12.5507 1.7467 11.9984Z" fill="#535763"/>
<path fill-rule="evenodd" clip-rule="evenodd" d="M19.7467 11.9984C19.7467 11.4461 20.1944 10.9984 20.7467 10.9984H21.7435C22.2958 10.9984 22.7435 11.4461 22.7435 11.9984C22.7435 12.5507 22.2958 12.9984 21.7435 12.9984H20.7467C20.1944 12.9984 19.7467 12.5507 19.7467 11.9984Z" fill="#535763"/>
<path fill-rule="evenodd" clip-rule="evenodd" d="M4.82171 19.4219C4.43118 19.0313 4.43118 18.3982 4.82171 18.0077L5.52881 17.3005C5.91934 16.91 6.5525 16.91 6.94303 17.3005C7.33355 17.6911 7.33355 18.3242 6.94303 18.7148L6.23592 19.4219C5.8454 19.8124 5.21223 19.8124 4.82171 19.4219Z" fill="#535763"/>
<path fill-rule="evenodd" clip-rule="evenodd" d="M17.5496 6.69394C17.1591 6.30342 17.1591 5.67025 17.5496 5.27973L18.2545 4.5749C18.645 4.18438 19.2781 4.18438 19.6687 4.5749C20.0592 4.96543 20.0592 5.59859 19.6687 5.98911L18.9638 6.69394C18.5733 7.08447 17.9402 7.08447 17.5496 6.69394Z" fill="#535763"/>
<path fill-rule="evenodd" clip-rule="evenodd" d="M4.82171 4.5749C5.21223 4.18438 5.8454 4.18438 6.23592 4.5749L6.94303 5.28201C7.33355 5.67253 7.33355 6.3057 6.94303 6.69622C6.5525 7.08675 5.91934 7.08675 5.52881 6.69622L4.82171 5.98911C4.43118 5.59859 4.43118 4.96543 4.82171 4.5749Z" fill="#535763"/>
<path fill-rule="evenodd" clip-rule="evenodd" d="M17.5496 17.3028C17.9402 16.9123 18.5733 16.9123 18.9638 17.3028L19.6687 18.0077C20.0592 18.3982 20.0592 19.0313 19.6687 19.4219C19.2781 19.8124 18.645 19.8124 18.2545 19.4219L17.5496 18.717C17.1591 18.3265 17.1591 17.6933 17.5496 17.3028Z" fill="#535763"/>
</svg>
