<svg width="25" height="24" viewBox="0 0 25 24" fill="none" xmlns="http://www.w3.org/2000/svg">
<path fill-rule="evenodd" clip-rule="evenodd" d="M8.31567 6.02554C6.46318 7.28665 5.25 9.41153 5.25 11.8166C5.25 15.6826 8.38401 18.8166 12.25 18.8166C14.6551 18.8166 16.7799 17.6034 18.0411 15.7509C12.9317 15.1924 8.87421 11.1349 8.31567 6.02554ZM19.25 13.8166C20.116 13.8166 20.8618 14.5799 20.5191 15.3752C19.1398 18.5759 15.9566 20.8166 12.25 20.8166C7.27944 20.8166 3.25 16.7872 3.25 11.8166C3.25 8.11003 5.49067 4.92679 8.6914 3.54752C9.48674 3.20478 10.25 3.95057 10.25 4.81661C10.25 9.78718 14.2794 13.8166 19.25 13.8166Z" fill="#535763"/>
</svg>
